<svg width="3000" height="3000" viewBox="0 0 3000 3000" fill="none" xmlns="http://www.w3.org/2000/svg"><path d="M1500 3000C2328.43 3000 3000 2328.43 3000 1500C3000 671.573 2328.43 0 1500 0C671.573 0 0 671.573 0 1500C0 2328.43 671.573 3000 1500 3000Z" fill="black"/><path d="M812.914 1712.96L509.889 1068.13L460.046 1077.35C442.911 1079.31 425.569 1071.23 419.321 1057.93L342.003 893.402C336.536 881.768 340.107 855.743 354.899 848.792L915.144 585.517C1146.27 476.905 1289.53 580.014 1376.22 764.489L1408.24 832.628L1446.72 924.111C1468.79 980.692 1468.88 1057.75 1442.47 1116.83C1441.4 1119.36 1433.43 1131.22 1434.21 1132.88C1436.84 1133.67 1442.1 1135.26 1443.95 1134.39C1518.17 1148.21 1573.65 1213.44 1604.4 1274.06L1632.02 1328.04C1640.98 1327.89 1674.46 1322.29 1682.64 1320.48C1699.78 1318.51 1717.4 1322.4 1724.43 1337.36L1802.53 1503.55C1809.56 1518.51 1802.58 1542.08 1785.94 1549.9L1525.23 1672.42C1508.59 1680.24 1486.28 1666.38 1480.03 1653.08L1379.28 1438.69C1358.19 1393.82 1310.23 1349.4 1252.91 1376.34L1014.39 1488.42L1027.67 1516.68L1051.71 1505.38L1035.48 1533.3L1047.98 1559.89L1090.54 1487.13L1120.12 1473.23L1057.35 1579.83L1064.38 1594.79L1077.03 1592.9L1158.95 1454.99L1190.38 1440.21L1101.56 1587.46C1129.51 1584.47 1150.05 1584.96 1161.77 1609.89L1234.4 1764.45C1241.43 1779.41 1240.49 1806.23 1220.15 1815.78L885.48 1973.05C868.839 1980.87 847.305 1968.68 841.057 1955.38L763.739 1790.85C757.491 1777.55 762.337 1759.04 773.718 1749.64L812.914 1712.96ZM251.223 1108.52L241.851 1088.58L275.086 1034.41L304.67 1020.51L251.223 1108.52ZM263.719 1135.11L343.499 1002.26L352.744 997.918L358.992 1011.21L273.091 1155.06L263.719 1135.11ZM285.587 1181.65L371.488 1037.8L380.86 1057.75L294.959 1201.59L285.587 1181.65ZM316.827 1248.13L307.455 1228.18L392.287 1086.87C396.766 1086.79 402.233 1098.43 404.576 1103.41L316.827 1248.13ZM333.307 1268.79L423.193 1119.01C430.302 1119.73 434.781 1119.65 443.739 1119.5L352.785 1271.81C349.087 1273.54 333.307 1268.79 333.307 1268.79ZM765.257 958.266L786.344 1003.14C789.261 999.739 801.502 977.754 804.419 974.354L834.003 960.452L795.716 1023.08L808.211 1049.67L872.832 942.205L902.416 928.303L817.583 1069.62L898.025 1240.8L1097.72 1146.95L1162.34 1039.49C1164.68 1044.47 1171.71 1059.43 1169.57 1064.49L1130.22 1129.65C1218.97 1087.95 1192.7 1027.25 1166.44 966.549L1154.72 941.619C1142.22 915.028 1128.95 886.776 1110.91 862.791C1077.74 811.423 1037.06 830.539 983.438 855.736L972.344 860.95L765.257 958.266ZM405.258 1263.38L382.576 1267.95L473.53 1115.65L475.379 1114.78L493.582 1110.28L495.925 1115.27L408.956 1261.64C407.107 1262.51 407.888 1264.17 406.039 1265.04L405.258 1263.38ZM848.155 1067.42L943.094 909.187L970.829 896.154L877.739 1053.52L848.155 1067.42ZM917.349 1036.94L915.5 1037.8L1007.52 882.969C1013.07 880.362 1030.49 874.204 1033.12 874.997L942.167 1027.3C942.948 1028.96 942.948 1028.96 941.099 1029.83C933.703 1033.31 922.896 1034.33 917.349 1036.94ZM970.89 1025.98L1061.56 877.866C1067.88 876.921 1076.56 880.962 1078.12 884.286L989.299 1031.53C984.039 1029.94 976.93 1029.23 970.89 1025.98ZM431.892 1305.64L422.52 1285.7L508.421 1141.86L517.793 1161.8L431.892 1305.64ZM1006.85 1049.66L1093.82 903.285L1094.6 904.946C1094.6 904.946 1101.13 914.049 1105.04 922.359L1017.29 1067.07L1006.85 1049.66ZM453.76 1352.18L444.388 1332.24L529.508 1186.73L539.66 1208.34L453.76 1352.18ZM1032.7 1090.26L1118.6 946.419C1122.01 948.874 1125.92 957.184 1129.04 963.831L1042.07 1110.21L1034.26 1093.59L1032.7 1090.26ZM466.255 1378.77L551.375 1233.26L561.528 1254.87L475.627 1398.71L466.255 1378.77ZM1053.79 1135.13L1141.54 990.422L1145.44 998.732L1149.35 1007.04C1150.13 1008.7 1150.91 1010.37 1149.06 1011.23L1063.94 1156.74L1053.79 1135.13ZM496.714 1443.59L488.123 1425.3L573.243 1279.8L581.834 1298.08L496.714 1443.59ZM518.582 1490.12L508.429 1468.51L594.33 1324.67L603.702 1344.61L518.582 1490.12ZM530.297 1515.05L616.198 1371.21L625.57 1391.15L539.669 1534.99L530.297 1515.05ZM552.165 1561.58L638.065 1417.74L647.437 1437.68L561.537 1581.53L552.165 1561.58ZM583.404 1628.06L574.032 1608.12L659.933 1464.27L669.305 1484.22L583.404 1628.06ZM595.9 1654.65L681.801 1510.81L691.173 1530.75L605.272 1674.6L595.9 1654.65ZM617.768 1701.19L703.669 1557.34L713.041 1577.29L627.14 1721.13L617.768 1701.19ZM649.008 1767.66L639.636 1747.72L725.537 1603.88L734.909 1623.82L649.008 1767.66ZM1134.27 1580.2L1229.21 1421.97C1238.46 1417.62 1247.7 1413.28 1256.66 1413.13L1163.86 1566.3C1162.79 1568.83 1164.64 1567.96 1162.79 1568.83C1153.54 1573.18 1143.52 1575.86 1134.27 1580.2ZM670.875 1814.2L661.504 1794.25L746.336 1652.94C745.555 1651.28 747.404 1650.41 747.404 1650.41L756.776 1670.35L670.875 1814.2ZM1194.43 1564.11L1283.53 1412.67C1285.38 1411.8 1301.16 1416.56 1301.94 1418.22L1212.06 1568C1206.8 1566.41 1199.69 1565.69 1194.43 1564.11ZM1235.44 1579.33C1234.66 1577.67 1236.51 1576.8 1236.51 1576.8L1323.48 1430.42L1336.05 1442.77C1336.83 1444.43 1336.83 1444.43 1334.98 1445.3L1249.08 1589.15C1243.82 1587.56 1237 1582.65 1235.44 1579.33ZM683.371 1840.79L769.272 1696.95L778.644 1716.89L692.743 1860.73L683.371 1840.79ZM1265.56 1609.81L1351.46 1465.96C1351.46 1465.96 1354.09 1466.76 1354.88 1468.42L1361.9 1483.38L1274.94 1629.75L1274.15 1628.09L1265.56 1609.81ZM1297.87 1673.75L1288.5 1653.81L1374.4 1509.97L1383.77 1529.91L1297.87 1673.75ZM714.611 1907.27L705.239 1887.32L743.814 1820.5C745.87 1829.68 748.994 1836.33 750.269 1843.84L714.611 1907.27ZM1310.37 1700.35L1396.27 1556.5L1405.64 1576.44L1319.74 1720.29L1310.37 1700.35ZM687.017 2035.88L677.645 2015.94L762.765 1870.43L772.918 1892.04L687.017 2035.88ZM673.566 1944.81L710.626 1913.2L665.149 1989.35C657.339 1972.73 661.117 1956.75 673.566 1944.81ZM1341.61 1766.82L1332.24 1746.88L1418.14 1603.04L1427.51 1622.98L1341.61 1766.82ZM699.513 2062.47L784.633 1916.97L794.004 1936.91L708.104 2080.76L699.513 2062.47ZM1363.47 1813.36L1354.1 1793.41L1440 1649.57L1449.38 1669.51L1363.47 1813.36ZM729.971 2127.29L720.599 2107.35L804.651 1964.37L806.5 1963.5L815.872 1983.45L729.971 2127.29ZM1375.97 1839.95L1461.87 1696.1C1465.28 1698.56 1473.67 1706.79 1475.23 1710.12L1386.41 1857.36C1382.22 1853.24 1379.88 1848.26 1377.53 1843.27L1375.97 1839.95ZM742.467 2153.88C741.686 2152.22 741.686 2152.22 743.535 2151.35L829.436 2007.51C835.477 2010.75 840.737 2012.34 846.778 2015.59L757.96 2162.83L756.892 2165.36C755.043 2166.23 743.248 2155.54 742.467 2153.88ZM1407.94 1869.56L1498.9 1717.25L1504.45 1714.65C1510.77 1713.7 1518.17 1710.23 1523.72 1707.62L1430.63 1864.99C1423.23 1868.46 1416.9 1869.41 1407.94 1869.56ZM782.698 2167.44L876.569 2011.73L906.153 1997.83L813.063 2155.2L783.479 2169.1L782.698 2167.44ZM881.476 2123.05L851.892 2136.95L944.982 1979.58L974.565 1965.68L881.476 2123.05ZM920.304 2104.8L1013.39 1947.44L1044.83 1932.66L949.888 2090.9L920.304 2104.8ZM988.717 2072.65L1083.66 1914.42L1105.84 1903.99L1108.19 1908.98L1020.15 2057.88L988.717 2072.65ZM1499.04 1832.84L1469.46 1846.74L1562.54 1689.37L1592.13 1675.47L1499.04 1832.84ZM1567.45 1800.69L1537.87 1814.59L1630.96 1657.22L1662.39 1642.45L1567.45 1800.69ZM1606.28 1782.44L1682.08 1655.52L1691.45 1675.46L1637.71 1767.67L1606.28 1782.44ZM1088.56 2025.73L1058.98 2039.64L1119.9 1933.91L1130.05 1955.51L1088.56 2025.73ZM1676.54 1749.42L1703.94 1702.06C1710.97 1717.01 1696.88 1739.87 1682.09 1746.82L1676.54 1749.42Z" fill="#F5EDED"/><path d="M2300 1908L1750 1908" stroke="#F5EDED" stroke-width="233" stroke-linecap="round" stroke-linejoin="round"/><path d="M2617 1306.9L2020 1650.4" stroke="#D7CFCF" stroke-width="233" stroke-linecap="round" stroke-linejoin="round"/><path d="M2611.81 1303.91L1960 1081.33" stroke="#D7CFCF" stroke-width="233" stroke-linecap="round" stroke-linejoin="round"/></svg>